<svg width="227" height="38" viewBox="0 0 227 38" fill="none" xmlns="http://www.w3.org/2000/svg">
<path d="M5.96661 21.7333V28.5666H0.5V8.0668L10.0666 17.6334L19.6332 8.0668V28.5666H14.1665V21.7333L10.0666 25.8333L5.96661 21.7333Z" fill="#FFC11C"/>
<path d="M27.2733 28.5666H21.8067V9.43346H27.2733V28.5666Z" fill="#FFC11C"/>
<path d="M34.9134 19V28.5666H29.4468V5.3335L43.1134 19V9.43346H48.58V32.6666L34.9134 19Z" fill="#FFC11C"/>
<path d="M56.2201 23.1H69.8866V28.5666H50.7535V9.43346H69.8866V14.9001H56.2201V16.2667H69.8866V21.7333H60.3201L56.2201 17.6334V23.1Z" fill="#FFC11C"/>
<path d="M77.5268 14.9001V16.2667H85.7267V14.9001H77.5268ZM77.5268 19V28.5666H72.0602V9.43346H91.1933V21.7333H88.46L95.2933 28.5666H87.0934L77.5268 19Z" fill="#FFC11C"/>
<path d="M93.3668 28.5666V23.1H107.033V21.7333H93.3668V9.43346H112.5V14.9001H98.8335V16.2667H112.5V28.5666H93.3668Z" fill="#FFC11C"/>
<path d="M125.167 16.5858L113.207 4.62639L111.5 2.91928V5.3335V28.5666V29.5666H112.5H117.967H118.967V28.5666V21.4142L130.926 33.3737L132.633 35.0808V32.6666V9.43346V8.43346H131.633H126.167H125.167V9.43346V16.5858ZM146.473 18H140.273V15.9001H146.473V18ZM139.273 29.5666H140.273V28.5666V22.7809L142.666 25.1738L142.959 25.4666H143.373H146.473V28.5666V29.5666H147.473H152.94H153.94V28.5666V9.43346V8.43346H152.94H133.807H132.807V9.43346V28.5666V29.5666H133.807H139.273ZM165.727 15.9001H174.247H175.247V14.9001V9.43346V8.43346H174.247H155.113H154.113V9.43346V14.9001V15.9001H155.113H160.947V28.5666V29.5666H161.947H167.413H168.413V28.5666V19V18.5858L168.12 18.2929L165.727 15.9001ZM181.887 29.5666H182.887V28.5666V9.43346V8.43346H181.887H176.42H175.42V9.43346V28.5666V29.5666H176.42H181.887ZM184.06 8.43346H183.06V9.43346V28.5666V29.5666H184.06H203.193H204.193V28.5666V9.43346V8.43346H203.193H184.06ZM218.033 16.5858L206.074 4.62639L204.367 2.91928V5.3335V28.5666V29.5666H205.367H210.833H211.833V28.5666V21.4142L223.793 33.3737L225.5 35.0808V32.6666V9.43346V8.43346H224.5H219.033H218.033V9.43346V16.5858ZM196.727 22.1H190.527V15.9001H196.727V22.1Z" stroke="#FFC11C" stroke-width="2"/>
</svg>
